Khaanaa.ufo
<glyph name="exclam" format="2">
  <advance width="161"/>
  <unicode hex="0021"/>
  <outline>
    <contour>
      <point x="75" y="121" type="qcurve" smooth="yes"/>
      <point x="95" y="121" type="line" smooth="yes"/>
      <point x="101" y="121"/>
      <point x="111" y="112"/>
      <point x="111" y="105" type="qcurve" smooth="yes"/>
      <point x="111" y="54" type="line" smooth="yes"/>
      <point x="111" y="48"/>
      <point x="101" y="39"/>
      <point x="95" y="39" type="qcurve" smooth="yes"/>
      <point x="75" y="39" type="line" smooth="yes"/>
      <point x="69" y="39"/>
      <point x="59" y="48"/>
      <point x="59" y="54" type="qcurve" smooth="yes"/>
      <point x="59" y="105" type="line" smooth="yes"/>
      <point x="59" y="111"/>
      <point x="69" y="121"/>
    </contour>
    <contour>
      <point x="67" y="614" type="qcurve" smooth="yes"/>
      <point x="93" y="614" type="line" smooth="yes"/>
      <point x="99" y="614"/>
      <point x="109" y="605"/>
      <point x="109" y="599" type="qcurve" smooth="yes"/>
      <point x="109" y="214" type="line" smooth="yes"/>
      <point x="109" y="208"/>
      <point x="99" y="199"/>
      <point x="93" y="199" type="qcurve" smooth="yes"/>
      <point x="67" y="199" type="line" smooth="yes"/>
      <point x="61" y="199"/>
      <point x="51" y="208"/>
      <point x="51" y="214" type="qcurve" smooth="yes"/>
      <point x="51" y="599" type="line" smooth="yes"/>
      <point x="51" y="605"/>
      <point x="61" y="614"/>
    </contour>
  </outline>
</glyph>
<glyph name="quotedbl" format="2">
  <advance width="258"/>
  <unicode hex="0022"/>
  <outline>
    <contour>
      <point x="169" y="817" type="qcurve" smooth="yes"/>
      <point x="191" y="817" type="line" smooth="yes"/>
      <point x="197" y="817"/>
      <point x="207" y="808"/>
      <point x="207" y="802" type="qcurve" smooth="yes"/>
      <point x="207" y="706" type="line" smooth="yes"/>
      <point x="207" y="700"/>
      <point x="198" y="690"/>
      <point x="191" y="690" type="qcurve" smooth="yes"/>
      <point x="169" y="690" type="line" smooth="yes"/>
      <point x="163" y="690"/>
      <point x="154" y="699"/>
      <point x="154" y="706" type="qcurve" smooth="yes"/>
      <point x="154" y="802" type="line" smooth="yes"/>
      <point x="154" y="808"/>
      <point x="163" y="817"/>
    </contour>
    <contour>
      <point x="67" y="817" type="qcurve" smooth="yes"/>
      <point x="89" y="817" type="line" smooth="yes"/>
      <point x="95" y="817"/>
      <point x="104" y="808"/>
      <point x="104" y="802" type="qcurve" smooth="yes"/>
      <point x="104" y="706" type="line" smooth="yes"/>
      <point x="104" y="700"/>
      <point x="95" y="690"/>
      <point x="89" y="690" type="qcurve" smooth="yes"/>
      <point x="67" y="690" type="line" smooth="yes"/>
      <point x="61" y="690"/>
      <point x="51" y="699"/>
      <point x="51" y="706" type="qcurve" smooth="yes"/>
      <point x="51" y="802" type="line" smooth="yes"/>
      <point x="51" y="808"/>
      <point x="61" y="817"/>
    </contour>
  </outline>
</glyph>
<glyph name="quotesingle" format="2">
  <advance width="155"/>
  <unicode hex="0027"/>
  <outline>
    <contour>
      <point x="67" y="817" type="qcurve" smooth="yes"/>
      <point x="89" y="817" type="line" smooth="yes"/>
      <point x="95" y="817"/>
      <point x="104" y="808"/>
      <point x="104" y="802" type="qcurve" smooth="yes"/>
      <point x="104" y="706" type="line" smooth="yes"/>
      <point x="104" y="700"/>
      <point x="95" y="690"/>
      <point x="89" y="690" type="qcurve" smooth="yes"/>
      <point x="67" y="690" type="line" smooth="yes"/>
      <point x="61" y="690"/>
      <point x="51" y="699"/>
      <point x="51" y="706" type="qcurve" smooth="yes"/>
      <point x="51" y="802" type="line" smooth="yes"/>
      <point x="51" y="808"/>
      <point x="61" y="817"/>
    </contour>
  </outline>
</glyph>
<glyph name="A" format="2">
  <advance width="370"/>
  <unicode hex="0041"/>
  <outline>
    <contour>
      <point x="67" y="551" type="qcurve" smooth="yes"/>
      <point x="180" y="582" type="line"/>
      <point x="302" y="551" type="line" smooth="yes"/>
      <point x="317" y="547"/>
      <point x="317" y="536" type="qcurve" smooth="yes"/>
      <point x="319" y="15" type="line" smooth="yes"/>
      <point x="319" y="9"/>
      <point x="310" y="0"/>
      <point x="304" y="0" type="qcurve" smooth="yes"/>
      <point x="273" y="0" type="line" smooth="yes"/>
      <point x="267" y="0"/>
      <point x="258" y="9"/>
      <point x="258" y="15" type="qcurve" smooth="yes"/>
      <point x="258" y="295" type="line"/>
      <point x="115" y="295" type="line"/>
      <point x="115" y="15" type="line" smooth="yes"/>
      <point x="115" y="9"/>
      <point x="105" y="0"/>
      <point x="99" y="0" type="qcurve" smooth="yes"/>
      <point x="69" y="0" type="line" smooth="yes"/>
      <point x="63" y="0"/>
      <point x="53" y="9"/>
      <point x="53" y="15" type="qcurve" smooth="yes"/>
      <point x="51" y="536" type="line" smooth="yes"/>
      <point x="52" y="547"/>
    </contour>
    <contour>
      <point x="115" y="358" type="line"/>
      <point x="258" y="358" type="line"/>
      <point x="258" y="493" type="line"/>
      <point x="180" y="524" type="line"/>
      <point x="115" y="496" type="line"/>
    </contour>
  </outline>
</glyph>
<glyph name="B" format="2">
  <advance width="512"/>
  <unicode hex="0042"/>
  <outline>
    <contour>
      <point x="202" y="780" type="line"/>
      <point x="50" y="780" type="line"/>
      <point x="50" y="4" type="line"/>
      <point x="202" y="4" type="line"/>
      <point x="210" y="3"/>
      <point x="218" y="3"/>
      <point x="226" y="3" type="curve" smooth="yes"/>
      <point x="369" y="3"/>
      <point x="484" y="118"/>
      <point x="484" y="260" type="curve" smooth="yes"/>
      <point x="484" y="314.7688903808594"/>
      <point x="424" y="361"/>
      <point x="395" y="396" type="curve"/>
      <point x="420" y="429"/>
      <point x="478" y="471.5007629394531"/>
      <point x="478" y="522" type="curve" smooth="yes"/>
      <point x="478" y="665"/>
      <point x="363" y="780"/>
      <point x="220" y="780" type="curve" smooth="yes"/>
      <point x="213.74057006835938" y="780"/>
      <point x="207.96484375" y="780"/>
      <point x="202" y="779.66357421875" type="curve"/>
    </contour>
    <contour>
      <point x="202" y="136" type="curve"/>
      <point x="202" y="343" type="line"/>
      <point x="210" y="345"/>
      <point x="218" y="346"/>
      <point x="226" y="346" type="curve" smooth="yes"/>
      <point x="286" y="346"/>
      <point x="333" y="299"/>
      <point x="333" y="239" type="curve" smooth="yes"/>
      <point x="333" y="180"/>
      <point x="286" y="133"/>
      <point x="226" y="133" type="curve" smooth="yes"/>
      <point x="218" y="133"/>
      <point x="210" y="134"/>
    </contour>
    <contour>
      <point x="202" y="454" type="curve"/>
      <point x="202" y="661" type="line"/>
      <point x="210" y="663"/>
      <point x="218" y="664"/>
      <point x="226" y="664" type="curve" smooth="yes"/>
      <point x="286" y="664"/>
      <point x="333" y="617"/>
      <point x="333" y="557" type="curve" smooth="yes"/>
      <point x="333" y="498"/>
      <point x="286" y="451"/>
      <point x="226" y="451" type="curve" smooth="yes"/>
      <point x="218" y="451"/>
      <point x="210" y="452"/>
    </contour>
  </outline>
</glyph>
<glyph name="C" format="2">
  <advance width="555"/>
  <unicode hex="0043"/>
  <outline>
    <contour>
      <point x="432" y="612" type="curve" smooth="yes"/>
      <point x="457.5546569824219" y="612"/>
      <point x="482.09710693359375" y="607.7487182617188"/>
      <point x="505" y="599.906005859375" type="curve"/>
      <point x="505" y="765.8317260742188" type="line"/>
      <point x="481.3713073730469" y="770.5360107421875"/>
      <point x="456.9656677246094" y="773"/>
      <point x="432" y="773" type="curve" smooth="yes"/>
      <point x="221" y="773"/>
      <point x="50" y="597"/>
      <point x="50" y="380" type="curve" smooth="yes"/>
      <point x="50" y="162"/>
      <point x="221" y="-14"/>
      <point x="432" y="-14" type="curve" smooth="yes"/>
      <point x="456.9656677246094" y="-14"/>
      <point x="481.3713073730469" y="-11.536039352416992"/>
      <point x="505" y="-6.830084323883057" type="curve"/>
      <point x="505" y="155.10214233398438" type="line"/>
      <point x="482.09710693359375" y="147.2512969970703"/>
      <point x="457.5546569824219" y="143"/>
      <point x="432" y="143" type="curve" smooth="yes"/>
      <point x="305" y="143"/>
      <point x="203" y="248"/>
      <point x="203" y="378" type="curve" smooth="yes"/>
      <point x="203" y="507"/>
      <point x="305" y="612"/>
    </contour>
  </outline>
</glyph>
<glyph name="D" format="2">
  <advance width="630"/>
  <unicode hex="0044"/>
  <outline>
    <contour>
      <point x="50" y="768" type="curve"/>
      <point x="50" y="-14" type="line"/>
      <point x="202" y="-14" type="line"/>
      <point x="202" y="-13.978899002075195" type="line"/>
      <point x="411.1568908691406" y="-11.771300315856934"/>
      <point x="580" y="163.3792266845703"/>
      <point x="580" y="380" type="curve" smooth="yes"/>
      <point x="580" y="597"/>
      <point x="409" y="773"/>
      <point x="198" y="773" type="curve" smooth="yes"/>
      <point x="148.38259446181067" y="773"/>
      <point x="99.62111562082367" y="760.9112691970251"/>
    </contour>
    <contour>
      <point x="202" y="143.03477478027344" type="curve"/>
      <point x="202" y="611.9652099609375" type="line"/>
      <point x="327.1349334716797" y="609.7879638671875"/>
      <point x="427" y="505.642822265625"/>
      <point x="427" y="378" type="curve" smooth="yes"/>
      <point x="427" y="249.36769104003906"/>
      <point x="327.1349334716797" y="145.2121124267578"/>
    </contour>
  </outline>
</glyph>
<glyph name="E" format="2">
  <advance width="668"/>
  <unicode hex="0045"/>
  <outline>
    <contour>
      <point x="509" y="485" type="line"/>
      <point x="202" y="485" type="line"/>
      <point x="202" y="626" type="line"/>
      <point x="618" y="626" type="line"/>
      <point x="617" y="778" type="line"/>
      <point x="50" y="778" type="line"/>
      <point x="50.02631759643555" y="774" type="line"/>
      <point x="50" y="774" type="line"/>
      <point x="50" y="-2" type="line"/>
      <point x="50.9934196472168" y="-2" type="line"/>
      <point x="51" y="-3" type="line"/>
      <point x="618" y="-3" type="line"/>
      <point x="617" y="149" type="line"/>
      <point x="202" y="149" type="line"/>
      <point x="202" y="333" type="line"/>
      <point x="510" y="333" type="line"/>
    </contour>
  </outline>
</glyph>
<glyph name="G" format="2">
  <advance width="651"/>
  <unicode hex="0047"/>
  <outline>
    <contour>
      <point x="432" y="612" type="curve" smooth="yes"/>
      <point x="457.5546569824219" y="612"/>
      <point x="482.09710693359375" y="607.7487182617188"/>
      <point x="505" y="599.906005859375" type="curve"/>
      <point x="505" y="765.8317260742188" type="line"/>
      <point x="481.3713073730469" y="770.5360107421875"/>
      <point x="456.9656677246094" y="773"/>
      <point x="432" y="773" type="curve" smooth="yes"/>
      <point x="221" y="773"/>
      <point x="50" y="597"/>
      <point x="50" y="380" type="curve" smooth="yes"/>
      <point x="50" y="162"/>
      <point x="221" y="-14"/>
      <point x="432" y="-14" type="curve" smooth="yes"/>
      <point x="437.6966857910156" y="-14"/>
      <point x="443.36419677734375" y="-13.871710777282715"/>
      <point x="449" y="-13.617768287658691" type="curve"/>
      <point x="449" y="-14" type="line"/>
      <point x="601" y="-14" type="line"/>
      <point x="601" y="313" type="line"/>
      <point x="449" y="313" type="line"/>
      <point x="449" y="143.63162231445312" type="line"/>
      <point x="443.38873291015625" y="143.21298217773438"/>
      <point x="437.7197265625" y="143"/>
      <point x="432" y="143" type="curve" smooth="yes"/>
      <point x="305" y="143"/>
      <point x="203" y="248"/>
      <point x="203" y="378" type="curve" smooth="yes"/>
      <point x="203" y="507"/>
      <point x="305" y="612"/>
    </contour>
  </outline>
</glyph>
<glyph name="K" format="2">
  <advance width="703"/>
  <unicode hex="004B"/>
  <outline>
    <contour>
      <point x="50" y="774" type="line"/>
      <point x="50" y="-2" type="line"/>
      <point x="202" y="-2" type="line"/>
      <point x="202" y="218.5047149658203" type="line"/>
      <point x="259.2077331542969" y="301.8876953125" type="line"/>
      <point x="511" y="-2" type="line"/>
      <point x="703" y="-3" type="line"/>
      <point x="372" y="387" type="line"/>
      <point x="633" y="768" type="line"/>
      <point x="447" y="770" type="line"/>
      <point x="202" y="432.8947448730469" type="line"/>
      <point x="202" y="774" type="line"/>
    </contour>
  </outline>
</glyph>
<glyph name="L" format="2">
  <advance width="718"/>
  <unicode hex="004C"/>
  <outline>
    <contour>
      <point x="50" y="774" type="line"/>
      <point x="50" y="-2" type="line"/>
      <point x="50.9934196472168" y="-2" type="line"/>
      <point x="51" y="-3" type="line"/>
      <point x="668" y="-3" type="line"/>
      <point x="667" y="149" type="line"/>
      <point x="202" y="149" type="line"/>
      <point x="202" y="774" type="line"/>
    </contour>
  </outline>
</glyph>
<glyph name="M" format="2">
  <advance width="1052"/>
  <unicode hex="004D"/>
  <outline>
    <contour>
      <point x="50" y="768" type="line"/>
      <point x="50" y="-2" type="line"/>
      <point x="202" y="-2" type="line"/>
      <point x="202" y="476.1600036621094" type="line"/>
      <point x="450" y="0" type="line"/>
      <point x="602" y="0" type="line"/>
      <point x="850" y="476.1600036621094" type="line"/>
      <point x="850" y="-2" type="line"/>
      <point x="1002" y="-2" type="line"/>
      <point x="1002" y="768" type="line"/>
      <point x="850" y="768" type="line"/>
      <point x="526" y="145.9199981689453" type="line"/>
      <point x="202" y="768" type="line"/>
    </contour>
  </outline>
</glyph>
<glyph name="N" format="2">
  <advance width="852"/>
  <unicode hex="004E"/>
  <outline>
    <contour>
      <point x="50" y="774" type="line"/>
      <point x="50" y="-2" type="line"/>
      <point x="202" y="-2" type="line"/>
      <point x="202" y="523.1014404296875" type="line"/>
      <point x="650" y="-2" type="line"/>
      <point x="802" y="-2" type="line"/>
      <point x="802" y="774" type="line"/>
      <point x="650" y="774" type="line"/>
      <point x="650" y="250.52174377441406" type="line"/>
      <point x="202" y="774" type="line"/>
    </contour>
  </outline>
</glyph>
<glyph name="Q" format="2">
  <advance width="864"/>
  <unicode hex="0051"/>
  <outline>
    <contour>
      <point x="661" y="378" type="curve" smooth="yes"/>
      <point x="661" y="248"/>
      <point x="559" y="143"/>
      <point x="432" y="143" type="curve" smooth="yes"/>
      <point x="305" y="143"/>
      <point x="203" y="248"/>
      <point x="203" y="378" type="curve" smooth="yes"/>
      <point x="203" y="507"/>
      <point x="305" y="612"/>
      <point x="432" y="612" type="curve" smooth="yes"/>
      <point x="559" y="612"/>
      <point x="661" y="507"/>
    </contour>
    <contour>
      <point x="814" y="380" type="curve" smooth="yes"/>
      <point x="814" y="597"/>
      <point x="643" y="773"/>
      <point x="432" y="773" type="curve" smooth="yes"/>
      <point x="221" y="773"/>
      <point x="50" y="597"/>
      <point x="50" y="380" type="curve" smooth="yes"/>
      <point x="50" y="162"/>
      <point x="221" y="-14"/>
      <point x="432" y="-14" type="curve" smooth="yes"/>
      <point x="455.4424133300781" y="-14"/>
      <point x="478.39111328125" y="-11.827536582946777"/>
      <point x="500.6663818359375" y="-7.666374683380127" type="curve"/>
      <point x="684" y="-191" type="line"/>
      <point x="822" y="-52" type="line"/>
      <point x="685.18408203125" y="84.81594848632812" type="line"/>
      <point x="764.1982421875" y="156.93797302246094"/>
      <point x="814" y="262.35296630859375"/>
    </contour>
  </outline>
</glyph>
<glyph name="R" format="2">
  <advance width="512"/>
  <unicode hex="0052"/>
  <outline>
    <contour>
      <point x="202" y="626" type="line"/>
      <point x="210" y="628"/>
      <point x="218" y="629"/>
      <point x="226" y="629" type="curve" smooth="yes"/>
      <point x="286" y="629"/>
      <point x="333" y="582"/>
      <point x="333" y="523" type="curve" smooth="yes"/>
      <point x="333" y="463"/>
      <point x="286" y="416"/>
      <point x="226" y="416" type="curve" smooth="yes"/>
      <point x="218" y="416"/>
      <point x="210" y="417"/>
      <point x="202" y="419" type="curve"/>
    </contour>
    <contour>
      <point x="202" y="3" type="line"/>
      <point x="202" y="266" type="line"/>
      <point x="203.63778686523438" y="265.7952880859375"/>
      <point x="205.27557373046875" y="265.6324768066406"/>
      <point x="206.91336059570312" y="265.50299072265625" type="curve"/>
      <point x="372" y="-3" type="line"/>
      <point x="512" y="-3" type="line"/>
      <point x="313.2552185058594" y="280" type="line"/>
      <point x="413.02398681640625" y="315.59674072265625"/>
      <point x="484" y="410.6578063964844"/>
      <point x="484" y="523" type="curve" smooth="yes"/>
      <point x="484" y="665"/>
      <point x="369" y="780"/>
      <point x="226" y="780" type="curve" smooth="yes"/>
      <point x="218" y="780"/>
      <point x="210" y="780"/>
      <point x="202" y="779" type="curve"/>
      <point x="50" y="779" type="line"/>
      <point x="50" y="3" type="line"/>
    </contour>
  </outline>
</glyph>
<glyph name="T" format="2">
  <advance width="676"/>
  <unicode hex="0054"/>
  <outline>
    <contour>
      <point x="265" y="766" type="line"/>
      <point x="265" y="-2" type="line"/>
      <point x="417" y="-2" type="line"/>
      <point x="417" y="766" type="line"/>
    </contour>
    <contour>
      <point x="53" y="614" type="line"/>
      <point x="629" y="614" type="line"/>
      <point x="629" y="766" type="line"/>
      <point x="53" y="766" type="line"/>
    </contour>
  </outline>
</glyph>
<glyph name="U" format="2">
  <advance width="669"/>
  <unicode hex="0055"/>
  <outline>
    <contour>
      <point x="616" y="184" type="curve"/>
      <point x="619" y="761" type="line"/>
      <point x="452" y="761" type="line"/>
      <point x="452" y="185" type="line"/>
      <point x="414.43093741576877" y="139.91712489892248"/>
      <point x="255.2372630976097" y="141.02715510031203"/>
      <point x="217" y="185" type="curve"/>
      <point x="217" y="761" type="line"/>
      <point x="50" y="761" type="line"/>
      <point x="53" y="184" type="line"/>
      <point x="122.2367424019376" y="-59.4453068289161"/>
      <point x="547.9316007387788" y="-55.413201196964934"/>
    </contour>
  </outline>
</glyph>
<glyph name="X" format="2">
  <advance width="724"/>
  <unicode hex="0058"/>
  <outline>
    <contour>
      <point x="50" y="770" type="line"/>
      <point x="274.5" y="384" type="line"/>
      <point x="51" y="-1" type="line"/>
      <point x="229" y="2" type="line"/>
      <point x="362.6095275878906" y="232.5065460205078" type="line"/>
      <point x="499" y="-2" type="line"/>
      <point x="674" y="0" type="line"/>
      <point x="452.728759765625" y="387.98248291015625" type="line"/>
      <point x="673" y="768" type="line"/>
      <point x="498" y="769" type="line"/>
      <point x="365.5504455566406" y="540.8430786132812" type="line"/>
      <point x="236" y="768" type="line"/>
    </contour>
  </outline>
</glyph>
<glyph name="Z" format="2">
  <advance width="876"/>
  <unicode hex="005A"/>
  <outline>
    <contour>
      <point x="50" y="10" type="line"/>
      <point x="826" y="10" type="line"/>
      <point x="826" y="162" type="line"/>
      <point x="301" y="162" type="line"/>
      <point x="826" y="610" type="line"/>
      <point x="826" y="762" type="line"/>
      <point x="50" y="762" type="line"/>
      <point x="50" y="610" type="line"/>
      <point x="573" y="610" type="line"/>
      <point x="50" y="162" type="line"/>
    </contour>
  </outline>
</glyph>
<glyph name="a" format="2">
  <advance width="512"/>
  <unicode hex="0061"/>
  <outline>
    <contour>
      <point x="332" y="1" type="line"/>
      <point x="484" y="1" type="line"/>
      <point x="484" y="514" type="line"/>
      <point x="332" y="514" type="line"/>
      <point x="332" y="514" type="line"/>
      <point x="324" y="515"/>
      <point x="316" y="515"/>
      <point x="308" y="515" type="curve" smooth="yes"/>
      <point x="165" y="515"/>
      <point x="50" y="408"/>
      <point x="50" y="266" type="curve" smooth="yes"/>
      <point x="50" y="123"/>
      <point x="165" y="8"/>
      <point x="308" y="8" type="curve" smooth="yes"/>
      <point x="316" y="8"/>
      <point x="324" y="8"/>
      <point x="332" y="9" type="curve"/>
    </contour>
    <contour>
      <point x="332" y="369" type="curve"/>
      <point x="332" y="162" type="line"/>
      <point x="324" y="160"/>
      <point x="316" y="159"/>
      <point x="308" y="159" type="curve" smooth="yes"/>
      <point x="248" y="159"/>
      <point x="201" y="206"/>
      <point x="201" y="266" type="curve" smooth="yes"/>
      <point x="201" y="325"/>
      <point x="248" y="372"/>
      <point x="308" y="372" type="curve" smooth="yes"/>
      <point x="316" y="372"/>
      <point x="324" y="371"/>
    </contour>
  </outline>
</glyph>
<glyph name="b" format="2">
  <advance width="512"/>
  <unicode hex="0062"/>
  <outline>
    <contour>
      <point x="202" y="780" type="line"/>
      <point x="50" y="780" type="line"/>
      <point x="50" y="4" type="line"/>
      <point x="202" y="4" type="line"/>
      <point x="202" y="4" type="line"/>
      <point x="210" y="3"/>
      <point x="218" y="3"/>
      <point x="226" y="3" type="curve" smooth="yes"/>
      <point x="369" y="3"/>
      <point x="484" y="118"/>
      <point x="484" y="260" type="curve" smooth="yes"/>
      <point x="484" y="403"/>
      <point x="369" y="518"/>
      <point x="226" y="518" type="curve" smooth="yes"/>
      <point x="218" y="518"/>
      <point x="210" y="518"/>
      <point x="202" y="517" type="curve"/>
    </contour>
    <contour>
      <point x="202" y="157" type="curve"/>
      <point x="202" y="364" type="line"/>
      <point x="210" y="366"/>
      <point x="218" y="367"/>
      <point x="226" y="367" type="curve" smooth="yes"/>
      <point x="286" y="367"/>
      <point x="333" y="320"/>
      <point x="333" y="260" type="curve" smooth="yes"/>
      <point x="333" y="201"/>
      <point x="286" y="154"/>
      <point x="226" y="154" type="curve" smooth="yes"/>
      <point x="218" y="154"/>
      <point x="210" y="155"/>
    </contour>
  </outline>
</glyph>
<glyph name="c" format="2">
  <advance width="384"/>
  <unicode hex="0063"/>
  <outline>
    <contour>
      <point x="334" y="4.296099662780762" type="curve"/>
      <point x="334" y="157.13189697265625" type="line"/>
      <point x="325.6737365722656" y="155.0848846435547"/>
      <point x="316.9638366699219" y="154"/>
      <point x="308" y="154" type="curve" smooth="yes"/>
      <point x="248" y="154"/>
      <point x="201" y="201"/>
      <point x="201" y="260" type="curve" smooth="yes"/>
      <point x="201" y="320"/>
      <point x="248" y="367"/>
      <point x="308" y="367" type="curve" smooth="yes"/>
      <point x="316.9638366699219" y="367"/>
      <point x="325.6737365722656" y="365.91510009765625"/>
      <point x="334" y="363.8645935058594" type="curve"/>
      <point x="334" y="516.7036743164062" type="line"/>
      <point x="325.44671630859375" y="517.56103515625"/>
      <point x="316.7729797363281" y="518"/>
      <point x="308" y="518" type="curve" smooth="yes"/>
      <point x="165" y="518"/>
      <point x="50" y="403"/>
      <point x="50" y="260" type="curve" smooth="yes"/>
      <point x="50" y="118"/>
      <point x="165" y="3"/>
      <point x="308" y="3" type="curve" smooth="yes"/>
      <point x="316.7729797363281" y="3"/>
      <point x="325.44671630859375" y="3.438950538635254"/>
    </contour>
  </outline>
</glyph>
<glyph name="d" format="2">
  <advance width="512"/>
  <unicode hex="0064"/>
  <outline>
    <contour>
      <point x="332" y="780" type="line"/>
      <point x="332" y="516.8963012695312" type="line"/>
      <point x="324.0954895019531" y="517.626708984375"/>
      <point x="316.0899353027344" y="518"/>
      <point x="308" y="518" type="curve" smooth="yes"/>
      <point x="165" y="518"/>
      <point x="50" y="403"/>
      <point x="50" y="260" type="curve" smooth="yes"/>
      <point x="50" y="118"/>
      <point x="165" y="3"/>
      <point x="308" y="3" type="curve" smooth="yes"/>
      <point x="316.0899353027344" y="3"/>
      <point x="324.0954895019531" y="3.373260021209717"/>
      <point x="332" y="4.1035075187683105" type="curve"/>
      <point x="332" y="4" type="line"/>
      <point x="484" y="4" type="line"/>
      <point x="484" y="780" type="line"/>
    </contour>
    <contour>
      <point x="332" y="156.66041564941406" type="line"/>
      <point x="324.28240966796875" y="154.91868591308594"/>
      <point x="316.24871826171875" y="154"/>
      <point x="308" y="154" type="curve" smooth="yes"/>
      <point x="248" y="154"/>
      <point x="201" y="201"/>
      <point x="201" y="260" type="curve" smooth="yes"/>
      <point x="201" y="320"/>
      <point x="248" y="367"/>
      <point x="308" y="367" type="curve" smooth="yes"/>
      <point x="316.24871826171875" y="367"/>
      <point x="324.28240966796875" y="366.081298828125"/>
      <point x="332" y="364.33685302734375" type="curve"/>
    </contour>
  </outline>
</glyph>
<glyph name="e" format="2">
  <advance width="617"/>
  <unicode hex="0065"/>
  <outline>
    <contour>
      <point x="566" y="260" type="curve" smooth="yes"/>
      <point x="566" y="403"/>
      <point x="450" y="518"/>
      <point x="308" y="518" type="curve" smooth="yes"/>
      <point x="165" y="518"/>
      <point x="50" y="403"/>
      <point x="50" y="260" type="curve" smooth="yes"/>
      <point x="50" y="118"/>
      <point x="165" y="3"/>
      <point x="308" y="3" type="curve" smooth="yes"/>
      <point x="321.94586181640625" y="3"/>
      <point x="544" y="4"/>
      <point x="557" y="6" type="curve"/>
      <point x="557" y="162" type="line"/>
      <point x="544" y="157"/>
      <point x="322.5162353515625" y="154"/>
      <point x="308" y="154" type="curve" smooth="yes"/>
      <point x="268.41571044921875" y="154"/>
      <point x="234.48971557617188" y="174.4569549560547"/>
      <point x="215.9852752685547" y="205.32049560546875" type="curve"/>
      <point x="567" y="208" type="line"/>
      <point x="567" y="223"/>
      <point x="566" y="241.32787743566215"/>
    </contour>
    <contour>
      <point x="230.30101013183594" y="334.2611389160156" type="line"/>
      <point x="249.6603546142578" y="354.5400695800781"/>
      <point x="277.10699462890625" y="367"/>
      <point x="308" y="367" type="curve" smooth="yes"/>
      <point x="339.3937072753906" y="367"/>
      <point x="367.6730041503906" y="353.69305419921875"/>
      <point x="387.2638244628906" y="332.2012634277344" type="curve"/>
    </contour>
  </outline>
</glyph>
<glyph name="g" format="2">
  <advance width="620"/>
  <unicode hex="0067"/>
  <outline>
    <contour>
      <point x="309.9546813964844" y="366.9827880859375" type="curve" smooth="yes"/>
      <point x="318.2306823730469" y="366.8368225097656"/>
      <point x="326.2802429199219" y="365.7657470703125"/>
      <point x="334" y="363.8645935058594" type="curve"/>
      <point x="334" y="364.82806396484375" type="line"/>
      <point x="383.101318359375" y="354.94549560546875"/>
      <point x="419" y="312.43743896484375"/>
      <point x="419" y="260" type="curve" smooth="yes"/>
      <point x="419" y="208.43650817871094"/>
      <point x="383.101318359375" y="166.0386505126953"/>
      <point x="334" y="156.16995239257812" type="curve"/>
      <point x="334" y="157.13189697265625" type="line"/>
      <point x="326.2802429199219" y="155.23399353027344"/>
      <point x="318.230712890625" y="154.1631622314453"/>
      <point x="309.9547119140625" y="154.01722717285156" type="curve"/>
      <point x="301.6419372558594" y="154.15728759765625"/>
      <point x="293.39385986328125" y="155.1515350341797"/>
      <point x="286" y="157" type="curve"/>
      <point x="286" y="156.16995239257812" type="line"/>
      <point x="236.89866638183594" y="166.0386505126953"/>
      <point x="201" y="208.43650817871094"/>
      <point x="201" y="260" type="curve" smooth="yes"/>
      <point x="201" y="312.43743896484375"/>
      <point x="236.89866638183594" y="354.94549560546875"/>
      <point x="286" y="364.82806396484375" type="curve"/>
      <point x="286" y="364" type="line"/>
      <point x="293.39385986328125" y="365.84844970703125"/>
      <point x="301.64190673828125" y="366.8427429199219"/>
    </contour>
    <contour>
      <point x="308.9057922363281" y="3.0015599727630615" type="curve" smooth="yes"/>
      <point x="309.92584228515625" y="3"/>
      <point x="310.9561767578125" y="3"/>
      <point x="312" y="3" type="curve" smooth="yes"/>
      <point x="350.2206115722656" y="3"/>
      <point x="386.44097900390625" y="11.215256690979004"/>
      <point x="419" y="25.96554183959961" type="curve"/>
      <point x="419" y="-17" type="line"/>
      <point x="399" y="-40"/>
      <point x="358" y="-54"/>
      <point x="325" y="-54" type="curve" smooth="yes"/>
      <point x="298" y="-54"/>
      <point x="139" y="-44"/>
      <point x="120" y="-28" type="curve"/>
      <point x="120" y="-196" type="line"/>
      <point x="143" y="-202"/>
      <point x="300" y="-205"/>
      <point x="325" y="-205" type="curve" smooth="yes"/>
      <point x="443" y="-205"/>
      <point x="536" y="-127"/>
      <point x="567" y="-18" type="curve"/>
      <point x="569.9192504882812" y="253.48867797851562" type="line" smooth="yes"/>
      <point x="569.9729614257812" y="255.65255737304688"/>
      <point x="570" y="257.8231201171875"/>
      <point x="570" y="260" type="curve" smooth="yes"/>
      <point x="570" y="260.28961181640625"/>
      <point x="569.99951171875" y="260.5791015625"/>
      <point x="569.9985961914062" y="260.86846923828125" type="curve" smooth="yes"/>
      <point x="570" y="261" type="line"/>
      <point x="569.9981079101562" y="261" type="line"/>
      <point x="569.4634399414062" y="403.5357360839844"/>
      <point x="454.66650390625" y="518"/>
      <point x="312" y="518" type="curve" smooth="yes"/>
      <point x="310.9560852050781" y="518"/>
      <point x="309.9256286621094" y="518"/>
      <point x="308.905517578125" y="517.9984130859375" type="curve"/>
      <point x="308.60400390625" y="517.9994506835938"/>
      <point x="308.30206298828125" y="518"/>
      <point x="308" y="518" type="curve" smooth="yes"/>
      <point x="306.81512451171875" y="518"/>
      <point x="305.6321716308594" y="517.9921264648438"/>
      <point x="304.451171875" y="517.9763793945312" type="curve" smooth="yes"/>
      <point x="299.6602783203125" y="517.930419921875"/>
      <point x="295.001708984375" y="517.7952270507812"/>
      <point x="290.12872314453125" y="517.3973388671875" type="curve" smooth="yes"/>
      <point x="155.53872680664062" y="508.2862548828125"/>
      <point x="50" y="396.9913330078125"/>
      <point x="50" y="260" type="curve" smooth="yes"/>
      <point x="50" y="123.96485900878906"/>
      <point x="125" y="13"/>
      <point x="259" y="4" type="curve"/>
      <point x="263.2407531738281" y="3.151846408843994"/>
      <point x="289.53863525390625" y="3.0730903148651123"/>
      <point x="300.34942626953125" y="3.0407142639160156" type="curve" smooth="yes"/>
      <point x="302.284912109375" y="3.0349178314208984"/>
      <point x="303.7239990234375" y="3.0306081771850586"/>
      <point x="304.45123291015625" y="3.0236361026763916" type="curve" smooth="yes"/>
      <point x="305.6320495605469" y="3.0078961849212646"/>
      <point x="306.8150634765625" y="3"/>
      <point x="308" y="3" type="curve" smooth="yes"/>
      <point x="308.3020324707031" y="3"/>
      <point x="308.6039733886719" y="3.0005202293395996"/>
    </contour>
  </outline>
</glyph>
<glyph name="m" format="2">
  <advance width="924"/>
  <unicode hex="006D"/>
  <outline>
    <contour>
      <point x="50" y="522" type="line"/>
      <point x="50" y="6" type="line"/>
      <point x="219" y="6" type="line"/>
      <point x="219" y="338" type="line"/>
      <point x="239" y="360"/>
      <point x="267" y="373"/>
      <point x="299" y="373" type="curve" smooth="yes"/>
      <point x="332" y="373"/>
      <point x="360" y="359"/>
      <point x="380" y="336" type="curve"/>
      <point x="380" y="6" type="line"/>
      <point x="547" y="6" type="line"/>
      <point x="544" y="337" type="line"/>
      <point x="513" y="446"/>
      <point x="417" y="524"/>
      <point x="299" y="524" type="curve" smooth="yes"/>
      <point x="271" y="524"/>
      <point x="245" y="520"/>
      <point x="219" y="512" type="curve"/>
      <point x="219" y="522" type="line"/>
    </contour>
    <contour>
      <point x="381" y="429" type="line"/>
      <point x="377" y="6" type="line"/>
      <point x="546" y="6" type="line"/>
      <point x="546" y="338" type="line"/>
      <point x="566" y="360"/>
      <point x="594" y="373"/>
      <point x="626" y="373" type="curve" smooth="yes"/>
      <point x="659" y="373"/>
      <point x="687" y="359"/>
      <point x="707" y="336" type="curve"/>
      <point x="707" y="6" type="line"/>
      <point x="874" y="6" type="line"/>
      <point x="871" y="337" type="line"/>
      <point x="840" y="446"/>
      <point x="744" y="524"/>
      <point x="626" y="524" type="curve" smooth="yes"/>
      <point x="598" y="524"/>
      <point x="572" y="520"/>
      <point x="546" y="512" type="curve"/>
    </contour>
  </outline>
</glyph>
<glyph name="n" format="2">
  <advance width="597"/>
  <unicode hex="006E"/>
  <outline>
    <contour>
      <point x="50" y="522" type="line"/>
      <point x="50" y="6" type="line"/>
      <point x="219" y="6" type="line"/>
      <point x="219" y="338" type="line"/>
      <point x="239" y="360"/>
      <point x="267" y="373"/>
      <point x="299" y="373" type="curve" smooth="yes"/>
      <point x="332" y="373"/>
      <point x="360" y="359"/>
      <point x="380" y="336" type="curve"/>
      <point x="380" y="6" type="line"/>
      <point x="547" y="6" type="line"/>
      <point x="544" y="337" type="line"/>
      <point x="513" y="446"/>
      <point x="417" y="524"/>
      <point x="299" y="524" type="curve" smooth="yes"/>
      <point x="271" y="524"/>
      <point x="245" y="520"/>
      <point x="219" y="512" type="curve"/>
      <point x="219" y="522" type="line"/>
    </contour>
  </outline>
</glyph>
<glyph name="o" format="2">
  <advance width="616"/>
  <unicode hex="006F"/>
  <outline>
    <contour>
      <point x="308.9057922363281" y="3.0015599727630615" type="curve" smooth="yes"/>
      <point x="309.92584228515625" y="3"/>
      <point x="310.9561767578125" y="3"/>
      <point x="312" y="3" type="curve" smooth="yes"/>
      <point x="455" y="3"/>
      <point x="570" y="118"/>
      <point x="570" y="260" type="curve" smooth="yes"/>
      <point x="570" y="403"/>
      <point x="455" y="518"/>
      <point x="312" y="518" type="curve" smooth="yes"/>
      <point x="310.9560852050781" y="518"/>
      <point x="309.9256286621094" y="518"/>
      <point x="308.905517578125" y="517.9984130859375" type="curve"/>
      <point x="308.60400390625" y="517.9994506835938"/>
      <point x="308.30206298828125" y="518"/>
      <point x="308" y="518" type="curve" smooth="yes"/>
      <point x="306.81512451171875" y="518"/>
      <point x="305.6321716308594" y="517.9921264648438"/>
      <point x="304.451171875" y="517.9763793945312" type="curve" smooth="yes"/>
      <point x="299.6602783203125" y="517.930419921875"/>
      <point x="295.001708984375" y="517.7952270507812"/>
      <point x="290.12872314453125" y="517.3973388671875" type="curve" smooth="yes"/>
      <point x="155.53872680664062" y="508.2862548828125"/>
      <point x="50" y="396.9913330078125"/>
      <point x="50" y="260" type="curve" smooth="yes"/>
      <point x="50" y="123.96485900878906"/>
      <point x="155.54151916503906" y="12.70903205871582"/>
      <point x="290.1340637207031" y="3.6022326946258545" type="curve" smooth="yes"/>
      <point x="295.0050354003906" y="3.2046618461608887"/>
      <point x="299.66192626953125" y="3.069551467895508"/>
      <point x="304.45123291015625" y="3.0236361026763916" type="curve" smooth="yes"/>
      <point x="305.6320495605469" y="3.0078961849212646"/>
      <point x="306.8150634765625" y="3"/>
      <point x="308" y="3" type="curve" smooth="yes"/>
      <point x="308.3020324707031" y="3"/>
      <point x="308.6039733886719" y="3.0005202293395996"/>
    </contour>
    <contour>
      <point x="309.9546813964844" y="366.9827880859375" type="curve" smooth="yes"/>
      <point x="318.2306823730469" y="366.8368225097656"/>
      <point x="326.2802429199219" y="365.7657470703125"/>
      <point x="334" y="363.8645935058594" type="curve"/>
      <point x="334" y="364.82806396484375" type="line"/>
      <point x="383.101318359375" y="354.94549560546875"/>
      <point x="419" y="312.43743896484375"/>
      <point x="419" y="260" type="curve" smooth="yes"/>
      <point x="419" y="208.43650817871094"/>
      <point x="383.101318359375" y="166.0386505126953"/>
      <point x="334" y="156.16995239257812" type="curve"/>
      <point x="334" y="157.13189697265625" type="line"/>
      <point x="326.2802429199219" y="155.23399353027344"/>
      <point x="318.230712890625" y="154.1631622314453"/>
      <point x="309.9547119140625" y="154.01722717285156" type="curve"/>
      <point x="301.6419372558594" y="154.15728759765625"/>
      <point x="293.39385986328125" y="155.1515350341797"/>
      <point x="286" y="157" type="curve"/>
      <point x="286" y="156.16995239257812" type="line"/>
      <point x="236.89866638183594" y="166.0386505126953"/>
      <point x="201" y="208.43650817871094"/>
      <point x="201" y="260" type="curve" smooth="yes"/>
      <point x="201" y="312.43743896484375"/>
      <point x="236.89866638183594" y="354.94549560546875"/>
      <point x="286" y="364.82806396484375" type="curve"/>
      <point x="286" y="364" type="line"/>
      <point x="293.39385986328125" y="365.84844970703125"/>
      <point x="301.64190673828125" y="366.8427429199219"/>
    </contour>
  </outline>
</glyph>
<glyph name="r" format="2">
  <advance width="587"/>
  <unicode hex="0072"/>
  <outline>
    <contour>
      <point x="50" y="522" type="line"/>
      <point x="50" y="6" type="line"/>
      <point x="219" y="6" type="line"/>
      <point x="219" y="338" type="line"/>
      <point x="239" y="360"/>
      <point x="267" y="373"/>
      <point x="299" y="373" type="curve" smooth="yes"/>
      <point x="327.8094787597656" y="373"/>
      <point x="352.80816650390625" y="362.329833984375"/>
      <point x="372" y="344.3163757324219" type="curve"/>
      <point x="372" y="345" type="line"/>
      <point x="537" y="345" type="line"/>
      <point x="500" y="443"/>
      <point x="409.27337646484375" y="524"/>
      <point x="299" y="524" type="curve" smooth="yes"/>
      <point x="271" y="524"/>
      <point x="245" y="520"/>
      <point x="219" y="512" type="curve"/>
      <point x="219" y="522" type="line"/>
    </contour>
  </outline>
</glyph>
<glyph name="s" format="2">
  <advance width="508.65844518717364"/>
  <unicode hex="0073"/>
  <outline>
    <contour>
      <point x="68.61482136093927" y="47" type="line"/>
      <point x="76.61482136093927" y="41"/>
      <point x="83.61482136093927" y="36"/>
      <point x="90.61482136093927" y="34" type="curve" smooth="yes"/>
      <point x="217.6148213609393" y="-21"/>
      <point x="370.6148213609393" y="-1"/>
      <point x="432.6148213609393" y="75" type="curve" smooth="yes"/>
      <point x="508.6148213609393" y="164"/>
      <point x="405.6148213609393" y="225"/>
      <point x="286.6148213609393" y="275" type="curve"/>
      <point x="286.6148213609393" y="275" type="line"/>
      <point x="222.6148213609393" y="286"/>
      <point x="225.6148213609393" y="293"/>
      <point x="255.6148213609393" y="328" type="curve" smooth="yes"/>
      <point x="281.6148213609393" y="359"/>
      <point x="303.6148213609393" y="366"/>
      <point x="356.6148213609393" y="344" type="curve" smooth="yes"/>
      <point x="365.6148213609393" y="341"/>
      <point x="372.6148213609393" y="336"/>
      <point x="378.6148213609393" y="332" type="curve"/>
      <point x="445.6148213609393" y="462" type="line"/>
      <point x="438.6148213609393" y="468"/>
      <point x="430.6148213609393" y="470"/>
      <point x="423.6148213609393" y="473" type="curve" smooth="yes"/>
      <point x="296.6148213609393" y="527"/>
      <point x="143.6148213609393" y="510"/>
      <point x="80.61482136093927" y="434" type="curve" smooth="yes"/>
      <point x="5.614821360939274" y="345"/>
      <point x="76.61482136093927" y="262"/>
      <point x="204.6148213609393" y="211" type="curve"/>
      <point x="204.6148213609393" y="211" type="line"/>
      <point x="258.6148213609393" y="202"/>
      <point x="309.6148213609393" y="196"/>
      <point x="280.6148213609393" y="162" type="curve" smooth="yes"/>
      <point x="254.6148213609393" y="131"/>
      <point x="210.6148213609393" y="123"/>
      <point x="157.6148213609393" y="147" type="curve" smooth="yes"/>
      <point x="148.6148213609393" y="150"/>
      <point x="141.6148213609393" y="153"/>
      <point x="135.6148213609393" y="159" type="curve"/>
    </contour>
  </outline>
</glyph>
<glyph name="x" format="2">
  <advance width="724"/>
  <unicode hex="0078"/>
  <outline>
    <contour>
      <point x="50" y="513" type="line"/>
      <point x="274.5" y="255.5" type="line"/>
      <point x="51" y="-1" type="line"/>
      <point x="229" y="2" type="line"/>
      <point x="362.2909851074219" y="154.8043212890625" type="line"/>
      <point x="499" y="-2" type="line"/>
      <point x="674" y="0" type="line"/>
      <point x="452.585205078125" y="258.3172607421875" type="line"/>
      <point x="673" y="511" type="line"/>
      <point x="498" y="512" type="line"/>
      <point x="365.4915466308594" y="359.9265441894531" type="line"/>
      <point x="236" y="511" type="line"/>
    </contour>
  </outline>
</glyph>
<glyph name="y" format="2">
  <advance width="652"/>
  <unicode hex="0079"/>
  <outline>
    <contour>
      <point x="50" y="511" type="line"/>
      <point x="277" y="0" type="line"/>
      <point x="277.328125" y="0" type="line"/>
      <point x="208" y="-204" type="line"/>
      <point x="323" y="-203" type="line"/>
      <point x="523" y="308" type="line"/>
      <point x="522.5479736328125" y="308" type="line"/>
      <point x="602" y="511" type="line"/>
      <point x="450" y="511" type="line"/>
      <point x="326" y="144" type="line"/>
      <point x="202" y="511" type="line"/>
    </contour>
  </outline>
</glyph>
